# xmcd
#
# Track frame offsets: 
#        150
#        19304
#        29962
#        41407
#        50454
#        66017
#        76051
#        94769
#        105977
#        119859
#        140085
#        153324
#
# Disc length: 2220 seconds
#
# Revision: 0
# Processed by: cddbd v1.5.2PL0 Copyright (c) Steve Scherf et al.
# Submitted via: ExactAudioCopy v0.99pb3
#
DISCID=a208aa0c
DTITLE=Stan Corliss - Electric Horseman
DYEAR=1900
DGENRE=Western
TTITLE0=Here Come the Cowboys--Theme to the Branson Show
TTITLE1=Now Youv'e Got the Cowboys Mad--Song for Cancer Crusade
TTITLE2=Confirmation of a Fool
TTITLE3=You've Got Another Think Comin'
TTITLE4=Til You've Seen Julie Smile
TTITLE5=I Wish
TTITLE6=His Heart Skipped a Beat
TTITLE7=I'm Not Gonna Think About That Tonight
TTITLE8=Those Hands, Those Hands
TTITLE9=Colt 45
TTITLE10=The Lone Ranger Rides Again
TTITLE11=Goodbye, Good Luck and May the Good Lord Take a Likin' to You
EXTD=
EXTT0=
EXTT1=
EXTT2=
EXTT3=
EXTT4=
EXTT5=
EXTT6=
EXTT7=
EXTT8=
EXTT9=
EXTT10=
EXTT11=
PLAYORDER=
